<svg width="20" height="20" viewBox="0 0 20 20" fill="none" xmlns="http://www.w3.org/2000/svg">
<path d="M9.99997 7.39648C8.56638 7.39648 7.39645 8.5664 7.39645 10C7.39645 11.4336 8.56638 12.6035 9.99997 12.6035C11.4336 12.6035 12.6035 11.4336 12.6035 10C12.6035 8.5664 11.4336 7.39648 9.99997 7.39648ZM17.8086 10C17.8086 8.92187 17.8183 7.85351 17.7578 6.77734C17.6972 5.52734 17.4121 4.41797 16.498 3.5039C15.582 2.58789 14.4746 2.30468 13.2246 2.24414C12.1465 2.18359 11.0781 2.19336 10.0019 2.19336C8.9238 2.19336 7.85544 2.18359 6.77927 2.24414C5.52927 2.30468 4.41989 2.58984 3.50583 3.5039C2.58981 4.41992 2.30661 5.52734 2.24606 6.77734C2.18552 7.85547 2.19528 8.92383 2.19528 10C2.19528 11.0762 2.18552 12.1465 2.24606 13.2227C2.30661 14.4727 2.59177 15.582 3.50583 16.4961C4.42185 17.4121 5.52927 17.6953 6.77927 17.7559C7.85739 17.8164 8.92575 17.8066 10.0019 17.8066C11.08 17.8066 12.1484 17.8164 13.2246 17.7559C14.4746 17.6953 15.584 17.4102 16.498 16.4961C17.414 15.5801 17.6972 14.4727 17.7578 13.2227C17.8203 12.1465 17.8086 11.0781 17.8086 10V10ZM9.99997 14.0059C7.78317 14.0059 5.99411 12.2168 5.99411 10C5.99411 7.7832 7.78317 5.99414 9.99997 5.99414C12.2168 5.99414 14.0058 7.7832 14.0058 10C14.0058 12.2168 12.2168 14.0059 9.99997 14.0059ZM14.1699 6.76562C13.6523 6.76562 13.2343 6.34765 13.2343 5.83008C13.2343 5.3125 13.6523 4.89453 14.1699 4.89453C14.6875 4.89453 15.1054 5.3125 15.1054 5.83008C15.1056 5.95298 15.0815 6.0747 15.0345 6.18828C14.9876 6.30185 14.9187 6.40505 14.8318 6.49195C14.7449 6.57886 14.6417 6.64776 14.5281 6.69472C14.4145 6.74168 14.2928 6.76578 14.1699 6.76562V6.76562Z" fill="white"/>
</svg>
